<svg width="300" height="84" viewBox="0 0 300 84" fill="none" xmlns="http://www.w3.org/2000/svg">
<path d="M2.65265 61.2862L7.56002 51.4078C10.7432 54.6065 14.1253 56.2059 17.7063 56.2059C19.74 56.2059 21.2211 55.6649 22.1495 54.583C22.9011 53.7833 23.2769 52.7955 23.2769 51.6195C23.2769 50.4905 22.8569 49.5497 22.0169 48.7971C21.3095 48.1385 19.4084 47.3153 16.3137 46.3275L13.3295 45.3396C10.3674 44.3518 8.24528 43.0817 6.96317 41.5294C5.28317 39.6007 4.44317 36.8254 4.44317 33.2033C4.44317 28.4993 5.7916 24.7126 8.48844 21.8431C11.2737 18.8796 15.0537 17.3979 19.8284 17.3979C24.3821 17.3979 28.9358 18.6679 33.4895 21.2081L28.9137 30.7337C26.3937 28.6169 23.8737 27.5585 21.3537 27.5585C19.7621 27.5585 18.5021 28.0289 17.5737 28.9697C16.8221 29.7694 16.4463 30.6161 16.4463 31.5099C16.4463 32.3566 16.6453 33.0622 17.0432 33.6267C17.6621 34.4263 18.9442 35.1319 20.8895 35.7435L24.4042 36.8724C28.1179 38.0955 30.7926 39.6478 32.4284 41.5294C34.3295 43.6932 35.28 46.4921 35.28 49.926C35.28 54.8652 33.8874 58.8166 31.1021 61.7801C28.0958 64.9788 23.7411 66.5782 18.0379 66.5782C14.899 66.5782 12.0032 66.0607 9.35054 65.0259C7.09581 64.1791 4.86317 62.9326 2.65265 61.2862ZM43.5223 33.9795H54.1328V51.6195C54.1328 53.6422 54.6633 55.171 55.7244 56.2059C56.5644 57.0055 57.8023 57.4054 59.4381 57.4054C61.0738 57.4054 62.3338 56.9585 63.2181 56.0647C64.2349 54.9828 64.7433 53.5011 64.7433 51.6195V33.9795H75.3538V53.6657C75.3538 57.2407 74.4033 60.0631 72.5023 62.1329C69.8054 65.0964 65.5391 66.5782 59.7033 66.5782C53.4254 66.5782 48.9602 65.0729 46.3075 62.0623C44.4507 59.9926 43.5223 57.1937 43.5223 53.6657V33.9795ZM95.2383 62.4857V81.678H84.6278V33.9795H95.2383V37.4369C97.493 34.4263 100.521 32.9211 104.324 32.9211C108.479 32.9211 111.994 34.4499 114.868 37.5075C117.874 40.7062 119.377 44.7751 119.377 49.7143C119.377 54.7476 117.786 58.9107 114.603 62.2035C111.817 65.1199 108.435 66.5782 104.456 66.5782C100.787 66.5782 97.7141 65.214 95.2383 62.4857ZM101.737 42.5172C99.8804 42.5172 98.2888 43.2228 96.9625 44.634C95.592 46.0923 94.9067 47.8327 94.9067 49.8555C94.9067 51.7371 95.592 53.407 96.9625 54.8652C98.2888 56.2764 99.8804 56.982 101.737 56.982C103.638 56.982 105.208 56.2764 106.446 54.8652C107.816 53.407 108.501 51.7371 108.501 49.8555C108.501 47.8327 107.816 46.0923 106.446 44.634C105.208 43.2228 103.638 42.5172 101.737 42.5172ZM127.482 65.5198V33.9795H138.092V39.1303C139.065 37.1547 140.457 35.6964 142.27 34.7556C143.729 33.9089 145.564 33.4855 147.774 33.4855C147.863 33.4855 147.973 33.5091 148.106 33.5561C148.239 33.5561 148.46 33.5796 148.769 33.6267C149.123 33.6267 149.499 33.6267 149.896 33.6267V44.2812C148.482 43.5286 146.956 43.1523 145.321 43.1523C143.243 43.1523 141.629 43.7167 140.48 44.8457C138.888 46.398 138.092 48.7971 138.092 52.0428V65.5198H127.482ZM179.552 37.0135V33.9795H190.162V65.5198H179.552V62.0623C177.518 65.0729 174.445 66.5782 170.334 66.5782C166.178 66.5782 162.619 64.9083 159.657 61.5684C156.827 58.3697 155.413 54.5124 155.413 49.9966C155.413 44.8222 156.938 40.6121 159.988 37.3663C162.774 34.4028 166.333 32.9211 170.665 32.9211C174.29 32.9211 177.253 34.2852 179.552 37.0135ZM173.053 42.5172C171.284 42.5172 169.737 43.1993 168.411 44.5635C166.996 46.0217 166.288 47.7387 166.288 49.7143C166.288 51.7841 166.974 53.5011 168.344 54.8652C169.759 56.2764 171.35 56.982 173.119 56.982C174.932 56.982 176.523 56.2529 177.894 54.7947C179.22 53.3835 179.883 51.69 179.883 49.7143C179.883 47.6916 179.198 45.9747 177.827 44.5635C176.457 43.1993 174.865 42.5172 173.053 42.5172ZM199.46 14.0815H210.071V65.5198H199.46V14.0815ZM219.259 33.9795H229.869V51.6195C229.869 53.6422 230.4 55.171 231.461 56.2059C232.301 57.0055 233.539 57.4054 235.175 57.4054C236.81 57.4054 238.07 56.9585 238.955 56.0647C239.972 54.9828 240.48 53.5011 240.48 51.6195V33.9795H251.09V53.6657C251.09 57.2407 250.14 60.0631 248.239 62.1329C245.542 65.0964 241.276 66.5782 235.44 66.5782C229.162 66.5782 224.697 65.0729 222.044 62.0623C220.187 59.9926 219.259 57.1937 219.259 53.6657V33.9795ZM256.718 65.5198L271.506 48.3737L259.503 33.9795H273.297L278.403 40.471L283.642 33.9795H297.369L285.101 48.3737L299.956 65.5198H285.897L278.337 56.1353L270.777 65.5198H256.718Z" fill="white"/>
<path d="M50.8737 25.2H44.2895V8.3916H50.4C51.9631 8.3916 53.1158 8.8284 53.8579 9.702C54.5052 10.458 54.8289 11.508 54.8289 12.852C54.8289 13.5912 54.6789 14.28 54.3789 14.9184C54.0631 15.54 53.6368 15.9768 53.1 16.2288C53.9842 16.3296 54.7026 16.6656 55.2552 17.2368C55.9658 17.9592 56.321 18.984 56.321 20.3112C56.321 21.6888 55.9342 22.7892 55.1605 23.6124C54.1974 24.6708 52.7684 25.2 50.8737 25.2ZM48.3868 11.7432V15.0192H49.1447C49.871 15.0192 50.3921 14.8428 50.7079 14.49C50.9605 14.2212 51.0868 13.8516 51.0868 13.3812C51.0868 12.9276 50.9605 12.5496 50.7079 12.2472C50.3921 11.9112 49.871 11.7432 49.1447 11.7432H48.3868ZM48.3868 18.27V21.798H49.3105C50.6368 21.798 51.4816 21.5712 51.8447 21.1176C52.0658 20.8488 52.1763 20.4876 52.1763 20.034C52.1763 19.5132 52.0421 19.11 51.7737 18.8244C51.4263 18.4548 50.5816 18.27 49.2395 18.27H48.3868ZM59.2855 25.2V13.9356H63.075V18.5472L66.2724 13.9356H71.0329L66.6513 19.2276L71.4355 25.2H66.5329L63.075 20.2104V25.2H59.2855ZM84.5171 13.9356V25.2H80.7276V17.2368H78.0276V20.4624C78.0276 22.176 77.6566 23.4444 76.9145 24.2676C76.2513 24.99 75.2566 25.3512 73.9302 25.3512C73.4408 25.3512 72.9355 25.3008 72.4145 25.2V22.2768C73.0776 22.3608 73.575 22.218 73.9066 21.8484C74.2223 21.4956 74.3802 20.8908 74.3802 20.034V13.9356H84.5171ZM98.5896 16.9848C97.9107 16.9848 97.3422 17.2284 96.8843 17.7156C96.3949 18.2364 96.1501 18.8496 96.1501 19.5552C96.1501 20.244 96.3949 20.8488 96.8843 21.3696C97.3265 21.8568 97.8949 22.1004 98.5896 22.1004C99.2528 22.1004 99.8133 21.8568 100.271 21.3696C100.745 20.8656 100.982 20.244 100.982 19.5048C100.982 18.8328 100.761 18.2364 100.319 17.7156C99.8922 17.2284 99.3159 16.9848 98.5896 16.9848ZM91.6265 17.7408H92.7396C93.1028 16.548 93.7738 15.5652 94.7528 14.7924C95.8107 13.9692 97.0817 13.5576 98.5659 13.5576C100.508 13.5576 102.087 14.1792 103.303 15.4224C104.392 16.5816 104.937 17.9424 104.937 19.5048C104.937 21.1848 104.392 22.5876 103.303 23.7132C102.134 24.9564 100.516 25.578 98.4475 25.578C96.5054 25.578 95.0133 25.0068 93.9712 23.8644C93.2765 23.0916 92.8343 22.1088 92.6449 20.916H91.6265V25.2H87.837V13.9356H91.6265V17.7408ZM114.185 25.2V21.5208C113.49 21.7056 112.716 21.798 111.864 21.798C110.285 21.798 109.156 21.4284 108.477 20.6892C107.845 20.0172 107.529 18.9504 107.529 17.4888V13.9356H111.177V17.2116C111.177 17.8332 111.311 18.2616 111.579 18.4968C111.8 18.6984 112.227 18.7992 112.858 18.7992C113.379 18.7992 113.821 18.7404 114.185 18.6228V13.9356H117.974V25.2H114.185ZM121.292 13.9356H125.081V19.7316L129.273 13.9356H132.566V25.2H128.776V19.2528L124.631 25.2H121.292V13.9356ZM150.123 21.5712V24.948C149.318 25.368 148.442 25.578 147.495 25.578C145.821 25.578 144.431 25.0068 143.326 23.8644C142.237 22.7388 141.692 21.336 141.692 19.656C141.692 17.9256 142.26 16.4724 143.397 15.2964C144.518 14.154 145.939 13.5828 147.66 13.5828C148.513 13.5828 149.334 13.7928 150.123 14.2128V17.5896C149.476 17.1024 148.821 16.8588 148.158 16.8588C147.416 16.8588 146.8 17.1192 146.31 17.64C145.821 18.1608 145.576 18.8076 145.576 19.5804C145.576 20.3196 145.797 20.9496 146.239 21.4704C146.745 22.0416 147.392 22.3272 148.181 22.3272C148.923 22.3272 149.571 22.0752 150.123 21.5712ZM152.982 13.9356H159.472C160.735 13.9356 161.635 14.2044 162.172 14.742C162.662 15.2292 162.906 15.8844 162.906 16.7076C162.906 17.3628 162.756 17.9256 162.456 18.396C162.204 18.7824 161.817 19.0932 161.296 19.3284V19.3788C161.912 19.5132 162.417 19.7736 162.812 20.16C163.317 20.6472 163.569 21.294 163.569 22.1004C163.569 23.0076 163.317 23.73 162.812 24.2676C162.227 24.8892 161.367 25.2 160.23 25.2H152.982V13.9356ZM156.772 18.4212H158.193C158.651 18.4212 158.975 18.3372 159.164 18.1692C159.354 17.9844 159.448 17.7156 159.448 17.3628C159.448 17.0436 159.362 16.8084 159.188 16.6572C158.998 16.4724 158.659 16.38 158.169 16.38H156.772V18.4212ZM156.772 22.7556H158.454C158.848 22.7556 159.156 22.6464 159.377 22.428C159.583 22.2096 159.685 21.9408 159.685 21.6216C159.685 21.2688 159.591 20.9916 159.401 20.79C159.227 20.6052 158.912 20.5128 158.454 20.5128H156.772V22.7556ZM177.455 19.8828V20.3112H169.568C169.568 21.1008 169.789 21.7308 170.231 22.2012C170.578 22.5708 171.099 22.7556 171.794 22.7556C172.268 22.7556 172.678 22.6548 173.026 22.4532C173.326 22.2684 173.547 22.0164 173.689 21.6972H177.313C177.076 22.6044 176.649 23.3772 176.034 24.0156C175.023 25.0572 173.586 25.578 171.723 25.578C169.876 25.578 168.415 25.0068 167.342 23.8644C166.299 22.7556 165.778 21.336 165.778 19.6056C165.778 17.7912 166.307 16.338 167.365 15.246C168.423 14.154 169.868 13.608 171.699 13.608C173.389 13.608 174.747 14.1204 175.773 15.1452C176.894 16.2876 177.455 17.8668 177.455 19.8828ZM169.686 17.9928H173.973C173.863 17.5056 173.657 17.1024 173.357 16.7832C172.978 16.38 172.457 16.1784 171.794 16.1784C171.147 16.1784 170.634 16.38 170.255 16.7832C169.939 17.1528 169.749 17.556 169.686 17.9928ZM182.035 25.2V17.2368H179.288V13.9356H188.572V17.2368H185.825V25.2H182.035Z" fill="white"/>
</svg>
