<svg width="217" height="60" viewBox="0 0 217 60" fill="none" xmlns="http://www.w3.org/2000/svg">
<rect width="217" height="60" fill="white"/>
<path d="M1.91873 43.776L5.46839 36.72C7.77088 39.0048 10.2173 40.1472 12.8076 40.1472C14.2786 40.1472 15.3499 39.7608 16.0214 38.988C16.5651 38.4168 16.8369 37.7112 16.8369 36.8712C16.8369 36.0648 16.5331 35.3928 15.9255 34.8552C15.4138 34.3848 14.0388 33.7968 11.8002 33.0912L9.64165 32.3856C7.49906 31.68 5.96407 30.7728 5.03668 29.664C3.82148 28.2864 3.21388 26.304 3.21388 23.7168C3.21388 20.3568 4.18924 17.652 6.13995 15.6024C8.15463 13.4856 10.8888 12.4272 14.3426 12.4272C17.6364 12.4272 20.9302 13.3344 24.224 15.1488L20.9142 21.9528C19.0914 20.4408 17.2686 19.6848 15.4458 19.6848C14.2946 19.6848 13.3832 20.0208 12.7116 20.6928C12.168 21.264 11.8962 21.8688 11.8962 22.5072C11.8962 23.112 12.0401 23.616 12.3279 24.0192C12.7756 24.5904 13.703 25.0944 15.11 25.5312L17.6524 26.3376C20.3386 27.2112 22.2733 28.32 23.4565 29.664C24.8316 31.2096 25.5192 33.2088 25.5192 35.6616C25.5192 39.1896 24.5119 42.012 22.4972 44.1288C20.3226 46.4136 17.1727 47.556 13.0474 47.556C10.7769 47.556 8.68228 47.1864 6.76354 46.4472C5.13262 45.8424 3.51768 44.952 1.91873 43.776ZM31.4811 24.2712H39.156V36.8712C39.156 38.316 39.5398 39.408 40.3073 40.1472C40.9149 40.7184 41.8103 41.004 42.9935 41.004C44.1767 41.004 45.0881 40.6848 45.7277 40.0464C46.4632 39.2736 46.831 38.2152 46.831 36.8712V24.2712H54.5059V38.3328C54.5059 40.8864 53.8184 42.9024 52.4433 44.3808C50.4926 46.4976 47.4066 47.556 43.1854 47.556C38.6444 47.556 35.4145 46.4808 33.4958 44.3304C32.1527 42.852 31.4811 40.8528 31.4811 38.3328V24.2712ZM68.889 44.6328V58.3416H61.2141V24.2712H68.889V26.7408C70.52 24.5904 72.7105 23.5152 75.4607 23.5152C78.4667 23.5152 81.0091 24.6072 83.0877 26.7912C85.2623 29.076 86.3495 31.9824 86.3495 35.5104C86.3495 39.1056 85.1983 42.0792 82.8958 44.4312C80.8811 46.5144 78.4348 47.556 75.5566 47.556C72.9024 47.556 70.6799 46.5816 68.889 44.6328ZM73.5899 30.3696C72.2468 30.3696 71.0956 30.8736 70.1362 31.8816C69.1449 32.9232 68.6492 34.1664 68.6492 35.6112C68.6492 36.9552 69.1449 38.148 70.1362 39.1896C71.0956 40.1976 72.2468 40.7016 73.5899 40.7016C74.965 40.7016 76.1003 40.1976 76.9957 39.1896C77.987 38.148 78.4827 36.9552 78.4827 35.6112C78.4827 34.1664 77.987 32.9232 76.9957 31.8816C76.1003 30.8736 74.965 30.3696 73.5899 30.3696ZM92.2117 46.8V24.2712H99.8867V27.9504C100.59 26.5392 101.598 25.4976 102.909 24.8256C103.964 24.2208 105.291 23.9184 106.89 23.9184C106.954 23.9184 107.034 23.9352 107.13 23.9688C107.226 23.9688 107.386 23.9856 107.61 24.0192C107.865 24.0192 108.137 24.0192 108.425 24.0192V31.6296C107.402 31.092 106.298 30.8232 105.115 30.8232C103.612 30.8232 102.445 31.2264 101.614 32.0328C100.462 33.1416 99.8867 34.8552 99.8867 37.1736V46.8H92.2117ZM129.876 26.4384V24.2712H137.551V46.8H129.876V44.3304C128.405 46.4808 126.182 47.556 123.208 47.556C120.202 47.556 117.628 46.3632 115.485 43.9776C113.438 41.6928 112.415 38.9376 112.415 35.712C112.415 32.016 113.518 29.0088 115.725 26.6904C117.74 24.5736 120.314 23.5152 123.448 23.5152C126.07 23.5152 128.213 24.4896 129.876 26.4384ZM125.175 30.3696C123.896 30.3696 122.776 30.8568 121.817 31.8312C120.794 32.8728 120.282 34.0992 120.282 35.5104C120.282 36.9888 120.778 38.2152 121.769 39.1896C122.792 40.1976 123.944 40.7016 125.223 40.7016C126.534 40.7016 127.685 40.1808 128.676 39.1392C129.636 38.1312 130.115 36.9216 130.115 35.5104C130.115 34.0656 129.62 32.8392 128.628 31.8312C127.637 30.8568 126.486 30.3696 125.175 30.3696ZM144.276 10.0584H151.951V46.8H144.276V10.0584ZM158.597 24.2712H166.272V36.8712C166.272 38.316 166.656 39.408 167.423 40.1472C168.031 40.7184 168.926 41.004 170.11 41.004C171.293 41.004 172.204 40.6848 172.844 40.0464C173.579 39.2736 173.947 38.2152 173.947 36.8712V24.2712H181.622V38.3328C181.622 40.8864 180.935 42.9024 179.559 44.3808C177.609 46.4976 174.523 47.556 170.302 47.556C165.761 47.556 162.531 46.4808 160.612 44.3304C159.269 42.852 158.597 40.8528 158.597 38.3328V24.2712ZM185.693 46.8L196.39 34.5528L187.707 24.2712H197.685L201.378 28.908L205.168 24.2712H215.097L206.223 34.5528L216.968 46.8H206.799L201.33 40.0968L195.862 46.8H185.693Z" fill="black"/>
<path d="M36.7986 18H32.036V5.994H36.456C37.5867 5.994 38.4204 6.306 38.9572 6.93C39.4255 7.47 39.6596 8.22 39.6596 9.18C39.6596 9.708 39.5511 10.2 39.3341 10.656C39.1057 11.1 38.7973 11.412 38.409 11.592C39.0486 11.664 39.5682 11.904 39.968 12.312C40.4819 12.828 40.7389 13.56 40.7389 14.508C40.7389 15.492 40.4591 16.278 39.8994 16.866C39.2028 17.622 38.1691 18 36.7986 18ZM34.9998 8.388V10.728H35.548C36.0734 10.728 36.4503 10.602 36.6787 10.35C36.8614 10.158 36.9528 9.894 36.9528 9.558C36.9528 9.234 36.8614 8.964 36.6787 8.748C36.4503 8.508 36.0734 8.388 35.548 8.388H34.9998ZM34.9998 13.05V15.57H35.6679C36.6273 15.57 37.2383 15.408 37.501 15.084C37.6609 14.892 37.7409 14.634 37.7409 14.31C37.7409 13.938 37.6438 13.65 37.4496 13.446C37.1984 13.182 36.5873 13.05 35.6165 13.05H34.9998ZM42.8832 18V9.954H45.6242V13.248L47.937 9.954H51.3804L48.2111 13.734L51.6717 18H48.1254L45.6242 14.436V18H42.8832ZM61.134 9.954V18H58.393V12.312H56.44V14.616C56.44 15.84 56.1716 16.746 55.6348 17.334C55.1551 17.85 54.4356 18.108 53.4762 18.108C53.1222 18.108 52.7567 18.072 52.3798 18V15.912C52.8595 15.972 53.2192 15.87 53.4591 15.606C53.6875 15.354 53.8017 14.922 53.8017 14.31V9.954H61.134ZM71.3131 12.132C70.822 12.132 70.4109 12.306 70.0797 12.654C69.7256 13.026 69.5486 13.464 69.5486 13.968C69.5486 14.46 69.7256 14.892 70.0797 15.264C70.3995 15.612 70.8106 15.786 71.3131 15.786C71.7928 15.786 72.1983 15.612 72.5295 15.264C72.8721 14.904 73.0434 14.46 73.0434 13.932C73.0434 13.452 72.8835 13.026 72.5638 12.654C72.2554 12.306 71.8385 12.132 71.3131 12.132ZM66.2765 12.672H67.0816C67.3443 11.82 67.8297 11.118 68.5378 10.566C69.303 9.978 70.2224 9.684 71.296 9.684C72.7008 9.684 73.8429 10.128 74.7223 11.016C75.5104 11.844 75.9044 12.816 75.9044 13.932C75.9044 15.132 75.5104 16.134 74.7223 16.938C73.8772 17.826 72.7065 18.27 71.2104 18.27C69.8056 18.27 68.7263 17.862 67.9725 17.046C67.47 16.494 67.1502 15.792 67.0131 14.94H66.2765V18H63.5354V9.954H66.2765V12.672ZM82.5935 18V15.372C82.091 15.504 81.5313 15.57 80.9146 15.57C79.7725 15.57 78.9559 15.306 78.4648 14.778C78.0079 14.298 77.7795 13.536 77.7795 12.492V9.954H80.4178V12.294C80.4178 12.738 80.5149 13.044 80.709 13.212C80.8689 13.356 81.1773 13.428 81.6341 13.428C82.011 13.428 82.3308 13.386 82.5935 13.302V9.954H85.3345V18H82.5935ZM87.7344 9.954H90.4755V14.094L93.5078 9.954H95.8891V18H93.148V13.752L90.15 18H87.7344V9.954ZM108.589 15.408V17.82C108.007 18.12 107.373 18.27 106.688 18.27C105.477 18.27 104.472 17.862 103.673 17.046C102.884 16.242 102.49 15.24 102.49 14.04C102.49 12.804 102.902 11.766 103.724 10.926C104.535 10.11 105.563 9.702 106.808 9.702C107.424 9.702 108.018 9.852 108.589 10.152V12.564C108.121 12.216 107.647 12.042 107.167 12.042C106.631 12.042 106.185 12.228 105.831 12.6C105.477 12.972 105.3 13.434 105.3 13.986C105.3 14.514 105.46 14.964 105.78 15.336C106.145 15.744 106.613 15.948 107.184 15.948C107.721 15.948 108.19 15.768 108.589 15.408ZM110.657 9.954H115.351C116.265 9.954 116.916 10.146 117.304 10.53C117.659 10.878 117.836 11.346 117.836 11.934C117.836 12.402 117.727 12.804 117.51 13.14C117.327 13.416 117.047 13.638 116.671 13.806V13.842C117.116 13.938 117.481 14.124 117.767 14.4C118.132 14.748 118.315 15.21 118.315 15.786C118.315 16.434 118.132 16.95 117.767 17.334C117.344 17.778 116.722 18 115.9 18H110.657V9.954ZM113.398 13.158H114.426C114.758 13.158 114.992 13.098 115.129 12.978C115.266 12.846 115.334 12.654 115.334 12.402C115.334 12.174 115.272 12.006 115.146 11.898C115.009 11.766 114.763 11.7 114.409 11.7H113.398V13.158ZM113.398 16.254H114.615C114.9 16.254 115.123 16.176 115.283 16.02C115.431 15.864 115.506 15.672 115.506 15.444C115.506 15.192 115.437 14.994 115.3 14.85C115.174 14.718 114.946 14.652 114.615 14.652H113.398V16.254ZM128.359 14.202V14.508H122.654C122.654 15.072 122.814 15.522 123.134 15.858C123.385 16.122 123.762 16.254 124.264 16.254C124.607 16.254 124.904 16.182 125.155 16.038C125.372 15.906 125.532 15.726 125.635 15.498H128.256C128.085 16.146 127.776 16.698 127.331 17.154C126.6 17.898 125.561 18.27 124.213 18.27C122.877 18.27 121.82 17.862 121.044 17.046C120.29 16.254 119.913 15.24 119.913 14.004C119.913 12.708 120.296 11.67 121.061 10.89C121.826 10.11 122.871 9.72 124.196 9.72C125.418 9.72 126.4 10.086 127.143 10.818C127.953 11.634 128.359 12.762 128.359 14.202ZM122.74 12.852H125.841C125.761 12.504 125.612 12.216 125.395 11.988C125.121 11.7 124.744 11.556 124.264 11.556C123.796 11.556 123.425 11.7 123.151 11.988C122.922 12.252 122.785 12.54 122.74 12.852ZM131.672 18V12.312H129.685V9.954H136.4V12.312H134.413V18H131.672Z" fill="black"/>
</svg>
