<svg width="120" height="33" viewBox="0 0 120 33" fill="none" xmlns="http://www.w3.org/2000/svg">
<rect width="120" height="33" fill="white"/>
<path d="M1.06104 24.0768L3.02398 20.196C4.29725 21.4526 5.65009 22.081 7.08251 22.081C7.89598 22.081 8.4884 21.8684 8.85977 21.4434C9.1604 21.1292 9.31072 20.7412 9.31072 20.2792C9.31072 19.8356 9.14272 19.466 8.80672 19.1704C8.52377 18.9116 7.76335 18.5882 6.52545 18.2002L5.33177 17.8121C4.14693 17.424 3.29809 16.925 2.78525 16.3152C2.11325 15.5575 1.77725 14.4672 1.77725 13.0442C1.77725 11.1962 2.31661 9.7086 3.39535 8.58132C4.50946 7.41708 6.02146 6.83496 7.93135 6.83496C9.75282 6.83496 11.5743 7.33392 13.3958 8.33184L11.5655 12.074C10.5575 11.2424 9.54945 10.8266 8.54146 10.8266C7.90482 10.8266 7.40082 11.0114 7.02946 11.381C6.72882 11.6952 6.57851 12.0278 6.57851 12.379C6.57851 12.7116 6.65809 12.9888 6.81724 13.2106C7.06482 13.5247 7.57767 13.8019 8.35577 14.0422L9.76167 14.4857C11.2471 14.9662 12.317 15.576 12.9713 16.3152C13.7318 17.1653 14.112 18.2648 14.112 19.6139C14.112 21.5543 13.5549 23.1066 12.4408 24.2708C11.2383 25.5275 9.4964 26.1558 7.21514 26.1558C5.95956 26.1558 4.80125 25.9525 3.74019 25.546C2.8383 25.2133 1.94525 24.7236 1.06104 24.0768ZM17.4089 13.3492H21.6531V20.2792C21.6531 21.0738 21.8653 21.6744 22.2897 22.081C22.6257 22.3951 23.1209 22.5522 23.7752 22.5522C24.4295 22.5522 24.9335 22.3766 25.2872 22.0255C25.6939 21.6005 25.8973 21.0184 25.8973 20.2792V13.3492H30.1415V21.083C30.1415 22.4875 29.7613 23.5963 29.0009 24.4094C27.9221 25.5737 26.2156 26.1558 23.8813 26.1558C21.3701 26.1558 19.584 25.5644 18.523 24.3817C17.7803 23.5686 17.4089 22.469 17.4089 21.083V13.3492ZM38.0953 24.548V32.0879H33.8511V13.3492H38.0953V14.7074C38.9972 13.5247 40.2086 12.9334 41.7294 12.9334C43.3917 12.9334 44.7976 13.534 45.9471 14.7352C47.1496 15.9918 47.7509 17.5903 47.7509 19.5307C47.7509 21.5081 47.1142 23.1436 45.841 24.4372C44.7269 25.5829 43.374 26.1558 41.7825 26.1558C40.3147 26.1558 39.0856 25.6199 38.0953 24.548ZM40.6949 16.7033C39.9521 16.7033 39.3155 16.9805 38.785 17.5349C38.2368 18.1078 37.9627 18.7915 37.9627 19.5862C37.9627 20.3254 38.2368 20.9814 38.785 21.5543C39.3155 22.1087 39.9521 22.3859 40.6949 22.3859C41.4553 22.3859 42.0831 22.1087 42.5783 21.5543C43.1265 20.9814 43.4006 20.3254 43.4006 19.5862C43.4006 18.7915 43.1265 18.1078 42.5783 17.5349C42.0831 16.9805 41.4553 16.7033 40.6949 16.7033ZM50.9927 25.74V13.3492H55.2369V15.3727C55.6259 14.5966 56.183 14.0237 56.908 13.6541C57.4916 13.3214 58.2255 13.1551 59.1097 13.1551C59.1451 13.1551 59.1893 13.1644 59.2423 13.1828C59.2954 13.1828 59.3838 13.1921 59.5076 13.2106C59.6491 13.2106 59.7994 13.2106 59.9585 13.2106V17.3963C59.3927 17.1006 58.7825 16.9528 58.1282 16.9528C57.2971 16.9528 56.6516 17.1745 56.1918 17.618C55.5552 18.2279 55.2369 19.1704 55.2369 20.4455V25.74H50.9927ZM71.8206 14.5411V13.3492H76.0648V25.74H71.8206V24.3817C71.0071 25.5644 69.7781 26.1558 68.1334 26.1558C66.4711 26.1558 65.0476 25.4998 63.8627 24.1877C62.7309 22.931 62.165 21.4157 62.165 19.6416C62.165 17.6088 62.7751 15.9548 63.9953 14.6797C65.1094 13.5155 66.533 12.9334 68.2661 12.9334C69.7162 12.9334 70.901 13.4693 71.8206 14.5411ZM69.221 16.7033C68.5137 16.7033 67.8947 16.9712 67.3642 17.5072C66.7983 18.08 66.5153 18.7546 66.5153 19.5307C66.5153 20.3438 66.7894 21.0184 67.3377 21.5543C67.9035 22.1087 68.5402 22.3859 69.2476 22.3859C69.9726 22.3859 70.6092 22.0994 71.1574 21.5266C71.688 20.9722 71.9532 20.3069 71.9532 19.5307C71.9532 18.7361 71.6791 18.0616 71.1309 17.5072C70.5827 16.9712 69.9461 16.7033 69.221 16.7033ZM79.7842 5.53212H84.0284V25.74H79.7842V5.53212ZM87.7036 13.3492H91.9478V20.2792C91.9478 21.0738 92.16 21.6744 92.5844 22.081C92.9204 22.3951 93.4156 22.5522 94.0699 22.5522C94.7242 22.5522 95.2282 22.3766 95.5819 22.0255C95.9886 21.6005 96.192 21.0184 96.192 20.2792V13.3492H100.436V21.083C100.436 22.4875 100.056 23.5963 99.2956 24.4094C98.2168 25.5737 96.5103 26.1558 94.176 26.1558C91.6648 26.1558 89.8787 25.5644 88.8177 24.3817C88.0749 23.5686 87.7036 22.469 87.7036 21.083V13.3492ZM102.687 25.74L108.602 19.004L103.801 13.3492H109.319L111.361 15.8994L113.457 13.3492H118.948L114.04 19.004L119.982 25.74H114.359L111.335 22.0532L108.311 25.74H102.687Z" fill="black"/>
<path d="M20.3495 9.9H17.7158V3.2967H20.16C20.7853 3.2967 21.2463 3.4683 21.5432 3.8115C21.8021 4.1085 21.9316 4.521 21.9316 5.049C21.9316 5.3394 21.8716 5.61 21.7516 5.8608C21.6253 6.105 21.4548 6.2766 21.24 6.3756C21.5937 6.4152 21.8811 6.5472 22.1021 6.7716C22.3863 7.0554 22.5285 7.458 22.5285 7.9794C22.5285 8.5206 22.3737 8.9529 22.0642 9.2763C21.679 9.6921 21.1074 9.9 20.3495 9.9ZM19.3548 4.6134V5.9004H19.6579C19.9485 5.9004 20.1569 5.8311 20.2832 5.6925C20.3842 5.5869 20.4348 5.4417 20.4348 5.2569C20.4348 5.0787 20.3842 4.9302 20.2832 4.8114C20.1569 4.6794 19.9485 4.6134 19.6579 4.6134H19.3548ZM19.3548 7.1775V8.5635H19.7242C20.2548 8.5635 20.5927 8.4744 20.7379 8.2962C20.8263 8.1906 20.8706 8.0487 20.8706 7.8705C20.8706 7.6659 20.8169 7.5075 20.7095 7.3953C20.5706 7.2501 20.2327 7.1775 19.6958 7.1775H19.3548ZM23.7142 9.9V5.4747H25.23V7.2864L26.509 5.4747H28.4132L26.6606 7.5537L28.5742 9.9H26.6132L25.23 7.9398V9.9H23.7142ZM33.8069 5.4747V9.9H32.2911V6.7716H31.2111V8.0388C31.2111 8.712 31.0627 9.2103 30.7658 9.5337C30.5006 9.8175 30.1027 9.9594 29.5721 9.9594C29.3763 9.9594 29.1742 9.9396 28.9658 9.9V8.7516C29.2311 8.7846 29.43 8.7285 29.5627 8.5833C29.689 8.4447 29.7521 8.2071 29.7521 7.8705V5.4747H33.8069ZM39.4359 6.6726C39.1643 6.6726 38.9369 6.7683 38.7538 6.9597C38.558 7.1643 38.4601 7.4052 38.4601 7.6824C38.4601 7.953 38.558 8.1906 38.7538 8.3952C38.9306 8.5866 39.158 8.6823 39.4359 8.6823C39.7011 8.6823 39.9254 8.5866 40.1085 8.3952C40.298 8.1972 40.3927 7.953 40.3927 7.6626C40.3927 7.3986 40.3043 7.1643 40.1275 6.9597C39.9569 6.7683 39.7264 6.6726 39.4359 6.6726ZM36.6506 6.9696H37.0959C37.2411 6.501 37.5096 6.1149 37.9011 5.8113C38.3243 5.4879 38.8327 5.3262 39.4264 5.3262C40.2032 5.3262 40.8348 5.5704 41.3211 6.0588C41.7569 6.5142 41.9748 7.0488 41.9748 7.6626C41.9748 8.3226 41.7569 8.8737 41.3211 9.3159C40.8538 9.8043 40.2064 10.0485 39.379 10.0485C38.6022 10.0485 38.0054 9.8241 37.5885 9.3753C37.3106 9.0717 37.1338 8.6856 37.058 8.217H36.6506V9.9H35.1348V5.4747H36.6506V6.9696ZM45.6739 9.9V8.4546C45.396 8.5272 45.0865 8.5635 44.7454 8.5635C44.1139 8.5635 43.6623 8.4183 43.3907 8.1279C43.1381 7.8639 43.0118 7.4448 43.0118 6.8706V5.4747H44.4707V6.7617C44.4707 7.0059 44.5244 7.1742 44.6318 7.2666C44.7202 7.3458 44.8907 7.3854 45.1433 7.3854C45.3517 7.3854 45.5286 7.3623 45.6739 7.3161V5.4747H47.1896V9.9H45.6739ZM48.5168 5.4747H50.0326V7.7517L51.7094 5.4747H53.0263V9.9H51.5105V7.5636L49.8526 9.9H48.5168V5.4747ZM60.0494 8.4744V9.801C59.7273 9.966 59.3768 10.0485 58.9978 10.0485C58.3284 10.0485 57.7726 9.8241 57.3305 9.3753C56.8947 8.9331 56.6768 8.382 56.6768 7.722C56.6768 7.0422 56.9041 6.4713 57.3589 6.0093C57.8073 5.5605 58.3757 5.3361 59.0641 5.3361C59.4052 5.3361 59.7336 5.4186 60.0494 5.5836V6.9102C59.7905 6.7188 59.5284 6.6231 59.2631 6.6231C58.9663 6.6231 58.7199 6.7254 58.5242 6.93C58.3284 7.1346 58.2305 7.3887 58.2305 7.6923C58.2305 7.9827 58.3189 8.2302 58.4957 8.4348C58.6978 8.6592 58.9568 8.7714 59.2726 8.7714C59.5694 8.7714 59.8284 8.6724 60.0494 8.4744ZM61.193 5.4747H63.7889C64.2941 5.4747 64.6541 5.5803 64.8689 5.7915C65.0646 5.9829 65.1626 6.2403 65.1626 6.5637C65.1626 6.8211 65.1026 7.0422 64.9825 7.227C64.8815 7.3788 64.7268 7.5009 64.5183 7.5933V7.6131C64.7647 7.6659 64.9668 7.7682 65.1246 7.92C65.3268 8.1114 65.4278 8.3655 65.4278 8.6823C65.4278 9.0387 65.3268 9.3225 65.1246 9.5337C64.891 9.7779 64.5468 9.9 64.092 9.9H61.193V5.4747ZM62.7088 7.2369H63.2773C63.4604 7.2369 63.5899 7.2039 63.6657 7.1379C63.7415 7.0653 63.7794 6.9597 63.7794 6.8211C63.7794 6.6957 63.7447 6.6033 63.6752 6.5439C63.5994 6.4713 63.4636 6.435 63.2678 6.435H62.7088V7.2369ZM62.7088 8.9397H63.3815C63.5394 8.9397 63.6626 8.8968 63.751 8.811C63.8331 8.7252 63.8741 8.6196 63.8741 8.4942C63.8741 8.3556 63.8362 8.2467 63.7604 8.1675C63.691 8.0949 63.5647 8.0586 63.3815 8.0586H62.7088V8.9397ZM70.9819 7.8111V7.9794H67.8272C67.8272 8.2896 67.9156 8.5371 68.0924 8.7219C68.2314 8.8671 68.4398 8.9397 68.7177 8.9397C68.9072 8.9397 69.0714 8.9001 69.2103 8.8209C69.3303 8.7483 69.4188 8.6493 69.4756 8.5239H70.9251C70.8303 8.8803 70.6598 9.1839 70.4135 9.4347C70.0093 9.8439 69.4346 10.0485 68.6893 10.0485C67.9503 10.0485 67.3661 9.8241 66.9366 9.3753C66.5198 8.9397 66.3114 8.382 66.3114 7.7022C66.3114 6.9894 66.523 6.4185 66.9461 5.9895C67.3693 5.5605 67.9472 5.346 68.6798 5.346C69.3556 5.346 69.8988 5.5473 70.3093 5.9499C70.7577 6.3987 70.9819 7.0191 70.9819 7.8111ZM67.8745 7.0686H69.5893C69.5451 6.8772 69.463 6.7188 69.343 6.5934C69.1914 6.435 68.983 6.3558 68.7177 6.3558C68.4588 6.3558 68.2535 6.435 68.1019 6.5934C67.9756 6.7386 67.8998 6.897 67.8745 7.0686ZM72.8141 9.9V6.7716H71.7152V5.4747H75.4289V6.7716H74.3299V9.9H72.8141Z" fill="black"/>
</svg>
