<svg width="11" height="11" viewBox="0 0 11 11" fill="none" xmlns="http://www.w3.org/2000/svg">
<path d="M9.0506 0.536621H1.94936C1.1476 0.536621 0.536743 1.14748 0.536743 1.94923V9.05048C0.536743 9.85223 1.1476 10.4631 1.94936 10.4631H9.0506C9.85236 10.4631 10.4632 9.85223 10.4632 9.05048V1.94923C10.4632 1.14748 9.85236 0.536621 9.0506 0.536621ZM5.49998 8.4778C7.14166 8.4778 8.47792 7.17972 8.47792 5.61439C8.47792 5.34714 8.43974 5.04171 8.36338 4.81264H9.20331V8.85958C9.20331 9.05048 9.0506 9.24137 8.82153 9.24137H2.17843C1.98754 9.24137 1.79664 9.08866 1.79664 8.85958V4.77446H2.67475C2.5984 5.04171 2.56022 5.30896 2.56022 5.57621C2.52204 7.17972 3.85829 8.4778 5.49998 8.4778ZM5.49998 7.33244C4.43097 7.33244 3.59104 6.4925 3.59104 5.46168C3.59104 4.43085 4.43097 3.59092 5.49998 3.59092C6.56898 3.59092 7.40892 4.43085 7.40892 5.46168C7.40892 6.53068 6.56898 7.33244 5.49998 7.33244ZM9.16514 3.24731C9.16514 3.47638 8.97424 3.66728 8.74517 3.66728H7.67617C7.44709 3.66728 7.2562 3.47638 7.2562 3.24731V2.21649C7.2562 1.98741 7.44709 1.79652 7.67617 1.79652H8.74517C8.97424 1.79652 9.16514 1.98741 9.16514 2.21649V3.24731Z" fill="white"/>
</svg>
