<svg width="24" height="24" viewBox="0 0 24 24" fill="none" xmlns="http://www.w3.org/2000/svg">
<path fill-rule="evenodd" clip-rule="evenodd" d="M10.56 3.09333C6.43623 3.09333 3.09329 6.43627 3.09329 10.56C3.09329 14.6837 6.43623 18.0267 10.56 18.0267C14.6837 18.0267 18.0266 14.6837 18.0266 10.56C18.0266 6.43627 14.6837 3.09333 10.56 3.09333ZM0.959961 10.56C0.959961 5.25807 5.25803 0.959999 10.56 0.959999C15.8619 0.959999 20.16 5.25807 20.16 10.56C20.16 15.8619 15.8619 20.16 10.56 20.16C5.25803 20.16 0.959961 15.8619 0.959961 10.56Z" fill="black"/>
<path fill-rule="evenodd" clip-rule="evenodd" d="M17.3229 17.3229C17.7534 16.8924 17.4514 15.8924 17.8819 16.3229L22.6771 21.1182C23.1076 21.5487 23.1076 22.2466 22.6771 22.6771C22.2466 23.1076 21.5487 23.1076 21.1182 22.6771L16.3229 17.8818C15.8924 17.4513 16.8924 17.7534 17.3229 17.3229Z" fill="black"/>
</svg>
