<svg width="25" height="25" viewBox="0 0 25 25" fill="none" xmlns="http://www.w3.org/2000/svg">
<path fill-rule="evenodd" clip-rule="evenodd" d="M7.5 22.0833C7.5 20.9327 8.43274 20 9.58333 20C10.7339 20 11.6667 20.9327 11.6667 22.0833C11.6667 23.2339 10.7339 24.1667 9.58333 24.1667C8.43274 24.1667 7.5 23.2339 7.5 22.0833Z" fill="black"/>
<path fill-rule="evenodd" clip-rule="evenodd" d="M19.1666 22.0833C19.1666 20.9327 20.0994 20 21.25 20C22.4006 20 23.3333 20.9327 23.3333 22.0833C23.3333 23.2339 22.4006 24.1667 21.25 24.1667C20.0994 24.1667 19.1666 23.2339 19.1666 22.0833Z" fill="black"/>
<path fill-rule="evenodd" clip-rule="evenodd" d="M0 1.86272C0 1.29421 0.46637 0.833332 1.04167 0.833332H5.20833C5.70482 0.833332 6.1323 1.1796 6.22974 1.6607L7.10461 5.98028H23.9583C24.2688 5.98028 24.563 6.11711 24.7609 6.35349C24.9588 6.58987 25.0397 6.90115 24.9816 7.2025L23.3134 15.8468C23.1705 16.5577 22.7791 17.1963 22.2078 17.6507C21.6394 18.103 20.9288 18.3442 20.1993 18.333H10.0923C9.36289 18.3442 8.65229 18.103 8.08383 17.6507C7.51276 17.1964 7.12149 16.5582 6.97847 15.8477C6.97841 15.8474 6.97852 15.848 6.97847 15.8477L5.23832 7.2559C5.23126 7.22748 5.2254 7.1986 5.22078 7.1693L4.35449 2.89211H1.04167C0.46637 2.89211 0 2.43124 0 1.86272ZM7.52159 8.03906L9.02171 15.4457C9.06933 15.6827 9.19978 15.8955 9.39022 16.047C9.58065 16.1985 9.81894 16.279 10.0634 16.2744L10.0833 16.2742H20.2083L20.2283 16.2744C20.4727 16.279 20.711 16.1985 20.9014 16.047C21.091 15.8962 21.2211 15.6846 21.2693 15.449L22.6992 8.03906H7.52159Z" fill="black"/>
</svg>
