<svg width="25" height="25" viewBox="0 0 25 25" fill="none" xmlns="http://www.w3.org/2000/svg">
<path fill-rule="evenodd" clip-rule="evenodd" d="M3.70854 15.6475C4.80251 14.5926 6.28624 14 7.83333 14H17.1667C18.7138 14 20.1975 14.5926 21.2915 15.6475C22.3854 16.7024 23 18.1332 23 19.625V21.875C23 22.4963 22.4777 23 21.8333 23C21.189 23 20.6667 22.4963 20.6667 21.875V19.625C20.6667 18.7299 20.2979 17.8715 19.6415 17.2385C18.9852 16.6056 18.0949 16.25 17.1667 16.25H7.83333C6.90508 16.25 6.01484 16.6056 5.35846 17.2385C4.70208 17.8715 4.33333 18.7299 4.33333 19.625V21.875C4.33333 22.4963 3.811 23 3.16667 23C2.52233 23 2 22.4963 2 21.875V19.625C2 18.1332 2.61458 16.7024 3.70854 15.6475Z" fill="#EA1D2E"/>
<path fill-rule="evenodd" clip-rule="evenodd" d="M12.5 3.2C10.6775 3.2 9.2 4.67746 9.2 6.5C9.2 8.32254 10.6775 9.8 12.5 9.8C14.3225 9.8 15.8 8.32254 15.8 6.5C15.8 4.67746 14.3225 3.2 12.5 3.2ZM7 6.5C7 3.46243 9.46243 1 12.5 1C15.5376 1 18 3.46243 18 6.5C18 9.53757 15.5376 12 12.5 12C9.46243 12 7 9.53757 7 6.5Z" fill="#EA1D2E"/>
</svg>
