<svg width="14" height="8" viewBox="0 0 14 8" fill="none" xmlns="http://www.w3.org/2000/svg">
<path d="M12.902 7.17573C12.902 7.12663 12.8537 7.12663 12.8537 7.07752C12.6606 6.68469 12.2262 6.19366 11.6469 5.65352C11.3573 5.408 11.2125 5.21159 11.1159 5.11338C10.9711 4.91697 10.9711 4.76966 11.0194 4.57324C11.0677 4.42593 11.2607 4.18041 11.5986 3.73848C11.7917 3.49296 11.8883 3.34565 12.0331 3.19834C12.7572 2.21627 13.0951 1.57792 12.9985 1.2833L12.9503 1.2342C12.902 1.1851 12.8537 1.13599 12.7572 1.13599C12.6606 1.08689 12.5158 1.08689 12.371 1.13599H10.5367C10.4884 1.13599 10.4884 1.13599 10.3919 1.13599C10.3436 1.13599 10.2953 1.13599 10.2953 1.13599H10.247H10.1988L10.1505 1.18509C10.1022 1.2342 10.1022 1.2342 10.1022 1.2833C9.90913 1.82344 9.66777 2.26537 9.42642 2.75641C9.2816 3.00192 9.13679 3.24745 8.99197 3.44386C8.84716 3.64028 8.75061 3.78758 8.65407 3.88579C8.55752 3.984 8.46098 4.0331 8.41271 4.13131C8.36444 4.18041 8.2679 4.22952 8.2679 4.18041C8.21963 4.18041 8.17135 4.18041 8.17135 4.13131C8.12308 4.0822 8.07481 4.0331 8.02654 3.984C7.97827 3.93489 7.97826 3.83668 7.92999 3.73848C7.92999 3.64027 7.92999 3.54206 7.92999 3.49296C7.92999 3.44386 7.92999 3.29655 7.92999 3.19834C7.92999 3.05103 7.92999 2.95282 7.92999 2.90372C7.92999 2.75641 7.92999 2.56 7.92999 2.36358C7.92999 2.16717 7.92999 2.01985 7.92999 1.92165C7.92999 1.82344 7.92999 1.67613 7.92999 1.57792C7.92999 1.43061 7.92999 1.3324 7.92999 1.2833C7.92999 1.2342 7.88173 1.13599 7.88173 1.08689C7.83346 1.03778 7.78518 0.988679 7.73691 0.939575C7.68863 0.890472 7.59209 0.890473 7.54382 0.84137C7.30246 0.792266 7.01284 0.743164 6.67494 0.743164C5.90259 0.743164 5.3716 0.792269 5.17851 0.890476C5.08197 0.93958 4.98542 0.98868 4.93715 1.08689C4.84061 1.18509 4.84061 1.2342 4.88888 1.2342C5.13024 1.2833 5.32333 1.38151 5.41987 1.52882L5.46814 1.62703C5.51642 1.67613 5.51641 1.77434 5.56468 1.92165C5.61295 2.06896 5.61295 2.21627 5.61295 2.41268C5.61295 2.7073 5.61295 3.00193 5.61295 3.19834C5.61295 3.44386 5.56468 3.59117 5.56468 3.73848C5.56468 3.88579 5.51642 3.984 5.46814 4.0331C5.41987 4.13131 5.41987 4.18041 5.37159 4.18041C5.37159 4.18041 5.37159 4.22951 5.32332 4.22951C5.27505 4.22951 5.22678 4.27862 5.13024 4.27862C5.08196 4.27862 4.98542 4.22952 4.93715 4.18041C4.84061 4.13131 4.74407 4.0331 4.69579 3.9349C4.59925 3.83669 4.5027 3.68937 4.40616 3.49296C4.30962 3.29655 4.1648 3.10013 4.06825 2.80551L3.97172 2.6091C3.92345 2.51089 3.8269 2.31448 3.73036 2.06896C3.63382 1.82344 3.53727 1.62703 3.44073 1.38151C3.39245 1.2833 3.34419 1.2342 3.29592 1.18509H3.24764C3.24764 1.18509 3.19936 1.13599 3.15109 1.13599C3.10282 1.13599 3.05456 1.08689 3.00628 1.08689H1.2685C1.07541 1.08689 0.978871 1.13599 0.930599 1.18509L0.882324 1.2342C0.882324 1.2342 0.882324 1.2833 0.882324 1.33241C0.882324 1.38151 0.882327 1.43061 0.930599 1.52882C1.17196 2.11806 1.46159 2.70731 1.75122 3.29655C2.04085 3.83669 2.33048 4.32773 2.52357 4.67145C2.76493 5.01518 2.95801 5.3589 3.19937 5.65352C3.44073 5.94814 3.58554 6.14456 3.63381 6.24276C3.73035 6.34097 3.77862 6.39007 3.82689 6.43917L3.97172 6.58649C4.06826 6.68469 4.21307 6.83201 4.40616 6.97932C4.59925 7.12663 4.8406 7.27394 5.08196 7.42125C5.32332 7.56856 5.61296 7.66677 5.90259 7.76498C6.24049 7.86318 6.53012 7.91229 6.81975 7.86318H7.54382C7.68864 7.86318 7.78519 7.81408 7.88173 7.71587L7.92999 7.66676C7.92999 7.61766 7.97826 7.61766 7.97826 7.56856C7.97826 7.51945 7.97826 7.47035 7.97826 7.37215C7.97826 7.17573 7.97827 7.02842 8.02654 6.88111C8.07481 6.7338 8.07482 6.63559 8.12309 6.53739C8.17136 6.43918 8.21963 6.39007 8.2679 6.34097C8.31617 6.29187 8.36445 6.24276 8.36445 6.24276H8.41271C8.50925 6.19366 8.65407 6.24276 8.75061 6.34097C8.89543 6.43918 9.04024 6.58649 9.13678 6.7338C9.23333 6.88111 9.37815 7.02842 9.57124 7.22483C9.76433 7.42125 9.90914 7.56856 10.0057 7.61767L10.1505 7.71587C10.247 7.76497 10.3436 7.81408 10.4884 7.86318C10.6332 7.91229 10.7297 7.91228 10.8263 7.91228L12.4675 7.86318C12.6124 7.86318 12.7572 7.81408 12.8537 7.76498C12.9503 7.71587 12.9985 7.66677 12.9985 7.56856C12.9985 7.51945 12.9985 7.42125 12.9985 7.37215C12.902 7.27394 12.902 7.22483 12.902 7.17573Z" fill="white"/>
</svg>
