<svg width="260" height="72" viewBox="0 0 260 72" fill="none" xmlns="http://www.w3.org/2000/svg">
<path d="M2.29895 52.5309L6.552 44.0637C9.31074 46.8055 12.2419 48.1764 15.3455 48.1764C17.108 48.1764 18.3916 47.7127 19.1962 46.7853C19.8476 46.0999 20.1733 45.2532 20.1733 44.2452C20.1733 43.2775 19.8093 42.4711 19.0813 41.826C18.4682 41.2615 16.8206 40.5559 14.1385 39.7092L11.5522 38.8625C8.98505 38.0157 7.1459 36.9271 6.03474 35.5965C4.57874 33.9434 3.85074 31.5645 3.85074 28.4599C3.85074 24.4279 5.01937 21.1821 7.35663 18.7226C9.77053 16.1825 13.0465 14.9124 17.1846 14.9124C21.1312 14.9124 25.0777 16.001 29.0242 18.1783L25.0585 26.3431C22.8745 24.5287 20.6905 23.6215 18.5065 23.6215C17.1272 23.6215 16.0352 24.0247 15.2305 24.8311C14.5792 25.5165 14.2535 26.2423 14.2535 27.0084C14.2535 27.7341 14.4259 28.3389 14.7707 28.8228C15.3072 29.5082 16.4183 30.113 18.1042 30.6372L21.1503 31.6049C24.3688 32.6532 26.6869 33.9837 28.1046 35.5965C29.7522 37.4513 30.576 39.8503 30.576 42.7937C30.576 47.0273 29.369 50.4141 26.9552 52.9543C24.3497 55.6961 20.5756 57.0669 15.6328 57.0669C12.9124 57.0669 10.4027 56.6234 8.10379 55.7364C6.14969 55.0106 4.21474 53.9421 2.29895 52.5309ZM37.7193 29.1252H46.9151V44.2452C46.9151 45.9789 47.3749 47.2893 48.2944 48.1764C49.0224 48.8618 50.0953 49.2045 51.513 49.2045C52.9307 49.2045 54.0227 48.8215 54.789 48.0554C55.6702 47.1281 56.1109 45.858 56.1109 44.2452V29.1252H65.3066V45.9991C65.3066 49.0634 64.4829 51.4826 62.8353 53.2567C60.498 55.7969 56.8005 57.0669 51.7429 57.0669C46.302 57.0669 42.4321 55.7767 40.1332 53.1962C38.5239 51.4221 37.7193 49.0231 37.7193 45.9991V29.1252ZM82.5399 53.5591V70.0097H73.3441V29.1252H82.5399V32.0887C84.494 29.5082 87.1186 28.218 90.4137 28.218C94.0154 28.218 97.0615 29.5284 99.5521 32.1492C102.158 34.8909 103.46 38.3786 103.46 42.6122C103.46 46.9265 102.081 50.4948 99.3222 53.3172C96.9083 55.817 93.9771 57.0669 90.5287 57.0669C87.3485 57.0669 84.6855 55.8977 82.5399 53.5591ZM88.1723 36.4433C86.563 36.4433 85.1836 37.0481 84.0342 38.2577C82.8464 39.5076 82.2525 40.9994 82.2525 42.7332C82.2525 44.346 82.8464 45.7773 84.0342 47.0273C85.1836 48.2369 86.563 48.8417 88.1723 48.8417C89.8199 48.8417 91.1801 48.2369 92.2529 47.0273C93.4407 45.7773 94.0346 44.346 94.0346 42.7332C94.0346 40.9994 93.4407 39.5076 92.2529 38.2577C91.1801 37.0481 89.8199 36.4433 88.1723 36.4433ZM110.484 56.1597V29.1252H119.68V33.5402C120.523 31.8468 121.73 30.5969 123.301 29.7905C124.565 29.0647 126.155 28.7018 128.071 28.7018C128.148 28.7018 128.243 28.722 128.358 28.7623C128.473 28.7623 128.665 28.7825 128.933 28.8228C129.24 28.8228 129.565 28.8228 129.91 28.8228V37.9553C128.684 37.3101 127.362 36.9876 125.945 36.9876C124.144 36.9876 122.745 37.4714 121.749 38.4391C120.37 39.7697 119.68 41.826 119.68 44.6081V56.1597H110.484ZM155.611 31.7258V29.1252H164.807V56.1597H155.611V53.1962C153.849 55.7767 151.186 57.0669 147.622 57.0669C144.021 57.0669 140.936 55.6356 138.369 52.7729C135.917 50.0311 134.691 46.7249 134.691 42.8541C134.691 38.4189 136.013 34.8103 138.657 32.0282C141.07 29.4881 144.155 28.218 147.91 28.218C151.052 28.218 153.619 29.3873 155.611 31.7258ZM149.979 36.4433C148.446 36.4433 147.105 37.0279 145.956 38.1972C144.73 39.4471 144.117 40.9188 144.117 42.6122C144.117 44.3863 144.71 45.858 145.898 47.0273C147.124 48.2369 148.504 48.8417 150.036 48.8417C151.607 48.8417 152.987 48.2167 154.174 46.9668C155.324 45.7572 155.899 44.3057 155.899 42.6122C155.899 40.8785 155.305 39.4068 154.117 38.1972C152.929 37.0279 151.55 36.4433 149.979 36.4433ZM172.866 12.0698H182.062V56.1597H172.866V12.0698ZM190.024 29.1252H199.22V44.2452C199.22 45.9789 199.68 47.2893 200.6 48.1764C201.328 48.8618 202.4 49.2045 203.818 49.2045C205.236 49.2045 206.328 48.8215 207.094 48.0554C207.975 47.1281 208.416 45.858 208.416 44.2452V29.1252H217.612V45.9991C217.612 49.0634 216.788 51.4826 215.14 53.2567C212.803 55.7969 209.106 57.0669 204.048 57.0669C198.607 57.0669 194.737 55.7767 192.438 53.1962C190.829 51.4221 190.024 49.0231 190.024 45.9991V29.1252ZM222.489 56.1597L235.305 41.4631L224.903 29.1252H236.857L241.283 34.6893L245.823 29.1252H257.72L247.088 41.4631L259.962 56.1597H247.777L241.225 48.1159L234.673 56.1597H222.489Z" fill="white"/>
<path d="M44.0905 21.6001H38.3842V7.19287H43.6799C45.0347 7.19287 46.0336 7.56727 46.6768 8.31607C47.2378 8.96407 47.5184 9.86407 47.5184 11.0161C47.5184 11.6497 47.3884 12.2401 47.1284 12.7873C46.8547 13.3201 46.4852 13.6945 46.0199 13.9105C46.7863 13.9969 47.4089 14.2849 47.8878 14.7745C48.5036 15.3937 48.8115 16.2721 48.8115 17.4097C48.8115 18.5905 48.4763 19.5337 47.8057 20.2393C46.971 21.1465 45.7326 21.6001 44.0905 21.6001ZM41.9352 10.0657V12.8737H42.5921C43.2215 12.8737 43.6731 12.7225 43.9468 12.4201C44.1657 12.1897 44.2752 11.8729 44.2752 11.4697C44.2752 11.0809 44.1657 10.7569 43.9468 10.4977C43.6731 10.2097 43.2215 10.0657 42.5921 10.0657H41.9352ZM41.9352 15.6601V18.6841H42.7357C43.8852 18.6841 44.6173 18.4897 44.932 18.1009C45.1236 17.8705 45.2194 17.5609 45.2194 17.1721C45.2194 16.7257 45.1031 16.3801 44.8705 16.1353C44.5694 15.8185 43.8373 15.6601 42.6742 15.6601H41.9352ZM51.3807 21.6001V11.9449H54.6649V15.8977L57.436 11.9449H61.5618L57.7644 16.4809L61.9107 21.6001H57.6618L54.6649 17.3233V21.6001H51.3807ZM73.2481 11.9449V21.6001H69.9639V14.7745H67.6239V17.5393C67.6239 19.0081 67.3023 20.0953 66.6592 20.8009C66.0844 21.4201 65.2223 21.7297 64.0728 21.7297C63.6486 21.7297 63.2107 21.6865 62.7592 21.6001V19.0945C63.3339 19.1665 63.7649 19.0441 64.0523 18.7273C64.326 18.4249 64.4628 17.9065 64.4628 17.1721V11.9449H73.2481ZM85.4443 14.5585C84.8559 14.5585 84.3632 14.7673 83.9664 15.1849C83.5422 15.6313 83.3301 16.1569 83.3301 16.7617C83.3301 17.3521 83.5422 17.8705 83.9664 18.3169C84.3495 18.7345 84.8422 18.9433 85.4443 18.9433C86.019 18.9433 86.5048 18.7345 86.9017 18.3169C87.3122 17.8849 87.5174 17.3521 87.5174 16.7185C87.5174 16.1425 87.3259 15.6313 86.9427 15.1849C86.5732 14.7673 86.0738 14.5585 85.4443 14.5585ZM79.4096 15.2065H80.3743C80.689 14.1841 81.2706 13.3417 82.119 12.6793C83.0359 11.9737 84.1374 11.6209 85.4238 11.6209C87.1069 11.6209 88.4753 12.1537 89.529 13.2193C90.4732 14.2129 90.9453 15.3793 90.9453 16.7185C90.9453 18.1585 90.4732 19.3609 89.529 20.3257C88.5164 21.3913 87.1138 21.9241 85.3211 21.9241C83.638 21.9241 82.3448 21.4345 81.4417 20.4553C80.8395 19.7929 80.4564 18.9505 80.2922 17.9281H79.4096V21.6001H76.1253V11.9449H79.4096V15.2065ZM98.9599 21.6001V18.4465C98.3578 18.6049 97.6873 18.6841 96.9483 18.6841C95.5799 18.6841 94.6015 18.3673 94.0131 17.7337C93.4657 17.1577 93.192 16.2433 93.192 14.9905V11.9449H96.3531V14.7529C96.3531 15.2857 96.4694 15.6529 96.702 15.8545C96.8936 16.0273 97.2631 16.1137 97.8104 16.1137C98.262 16.1137 98.6452 16.0633 98.9599 15.9625V11.9449H102.244V21.6001H98.9599ZM105.12 11.9449H108.404V16.9129L112.037 11.9449H114.89V21.6001H111.606V16.5025L108.014 21.6001H105.12V11.9449ZM130.107 18.4897V21.3841C129.409 21.7441 128.65 21.9241 127.829 21.9241C126.378 21.9241 125.174 21.4345 124.216 20.4553C123.272 19.4905 122.8 18.2881 122.8 16.8481C122.8 15.3649 123.292 14.1193 124.277 13.1113C125.249 12.1321 126.481 11.6425 127.972 11.6425C128.711 11.6425 129.423 11.8225 130.107 12.1825V15.0769C129.546 14.6593 128.978 14.4505 128.403 14.4505C127.76 14.4505 127.226 14.6737 126.802 15.1201C126.378 15.5665 126.166 16.1209 126.166 16.7833C126.166 17.4169 126.357 17.9569 126.741 18.4033C127.179 18.8929 127.74 19.1377 128.424 19.1377C129.067 19.1377 129.628 18.9217 130.107 18.4897ZM132.585 11.9449H138.209C139.304 11.9449 140.084 12.1753 140.549 12.6361C140.973 13.0537 141.185 13.6153 141.185 14.3209C141.185 14.8825 141.055 15.3649 140.795 15.7681C140.576 16.0993 140.241 16.3657 139.79 16.5673V16.6105C140.323 16.7257 140.761 16.9489 141.103 17.2801C141.541 17.6977 141.76 18.2521 141.76 18.9433C141.76 19.7209 141.541 20.3401 141.103 20.8009C140.597 21.3337 139.851 21.6001 138.866 21.6001H132.585V11.9449ZM135.869 15.7897H137.101C137.498 15.7897 137.778 15.7177 137.942 15.5737C138.106 15.4153 138.189 15.1849 138.189 14.8825C138.189 14.6089 138.113 14.4073 137.963 14.2777C137.799 14.1193 137.504 14.0401 137.08 14.0401H135.869V15.7897ZM135.869 19.5049H137.326C137.669 19.5049 137.935 19.4113 138.127 19.2241C138.305 19.0369 138.394 18.8065 138.394 18.5329C138.394 18.2305 138.312 17.9929 138.148 17.8201C137.997 17.6617 137.723 17.5825 137.326 17.5825H135.869V19.5049ZM153.794 17.0425V17.4097H146.959C146.959 18.0865 147.15 18.6265 147.534 19.0297C147.835 19.3465 148.286 19.5049 148.888 19.5049C149.299 19.5049 149.655 19.4185 149.956 19.2457C150.216 19.0873 150.407 18.8713 150.53 18.5977H153.671C153.466 19.3753 153.096 20.0377 152.562 20.5849C151.687 21.4777 150.441 21.9241 148.827 21.9241C147.226 21.9241 145.96 21.4345 145.029 20.4553C144.126 19.5049 143.675 18.2881 143.675 16.8049C143.675 15.2497 144.133 14.0041 145.05 13.0681C145.967 12.1321 147.219 11.6641 148.806 11.6641C150.27 11.6641 151.447 12.1033 152.337 12.9817C153.308 13.9609 153.794 15.3145 153.794 17.0425ZM147.061 15.4225H150.777C150.681 15.0049 150.503 14.6593 150.243 14.3857C149.915 14.0401 149.463 13.8673 148.888 13.8673C148.327 13.8673 147.882 14.0401 147.554 14.3857C147.28 14.7025 147.116 15.0481 147.061 15.4225ZM157.764 21.6001V14.7745H155.383V11.9449H163.429V14.7745H161.048V21.6001H157.764Z" fill="white"/>
</svg>
