<svg width="70" height="70" viewBox="0 0 70 70" fill="none" xmlns="http://www.w3.org/2000/svg">
<g clip-path="url(#clip0_37_1773)">
<path d="M34.9999 10.3704C22.8484 10.3704 12.9629 20.2559 12.9629 32.4074C12.9629 41.6267 18.6549 49.7933 27.2221 53.0185V64.8148C27.2221 65.5317 27.8016 66.1111 28.5184 66.1111H29.8147V68.7037C29.8147 69.4205 30.3942 70 31.111 70H38.8888C39.6057 70 40.1851 69.4205 40.1851 68.7037V66.1111H41.4814C42.1983 66.1111 42.7777 65.5317 42.7777 64.8148V53.0185C51.3449 49.7933 57.037 41.6267 57.037 32.4074C57.037 20.2559 47.1514 10.3704 34.9999 10.3704ZM38.8888 63.5185C38.172 63.5185 37.5925 64.098 37.5925 64.8148V67.4074H32.4073V64.8148C32.4073 64.098 31.8279 63.5185 31.111 63.5185H29.8147V57.037H40.1851V63.5185H38.8888ZM41.077 50.8693C40.5442 51.0443 40.1851 51.542 40.1851 52.1007V54.4444H29.8147V52.1007C29.8147 51.5407 29.4557 51.0443 28.9229 50.8693C20.9286 48.2404 15.5555 40.8204 15.5555 32.4074C15.5555 21.6857 24.2783 12.963 34.9999 12.963C45.7216 12.963 54.4444 21.6857 54.4444 32.4074C54.4444 40.8204 49.0712 48.2404 41.077 50.8693Z" fill="black"/>
<path d="M34.9999 7.77778C35.7168 7.77778 36.2962 7.19833 36.2962 6.48148V1.2963C36.2962 0.579444 35.7168 0 34.9999 0C34.2831 0 33.7036 0.579444 33.7036 1.2963V6.48148C33.7036 7.19833 34.2831 7.77778 34.9999 7.77778Z" fill="black"/>
<path d="M66.1111 31.1111H60.9259C60.2091 31.1111 59.6296 31.6905 59.6296 32.4074C59.6296 33.1242 60.2091 33.7037 60.9259 33.7037H66.1111C66.828 33.7037 67.4074 33.1242 67.4074 32.4074C67.4074 31.6905 66.828 31.1111 66.1111 31.1111Z" fill="black"/>
<path d="M9.07401 31.1111H3.88883C3.17197 31.1111 2.59253 31.6905 2.59253 32.4074C2.59253 33.1242 3.17197 33.7037 3.88883 33.7037H9.07401C9.79087 33.7037 10.3703 33.1242 10.3703 32.4074C10.3703 31.6905 9.79087 31.1111 9.07401 31.1111Z" fill="black"/>
<path d="M56.0829 9.49147L52.417 13.1574C51.9102 13.6642 51.9102 14.4835 52.417 14.9904C52.6698 15.2431 53.0016 15.3702 53.3335 15.3702C53.6653 15.3702 53.9972 15.2431 54.25 14.9904L57.9159 11.3244C58.4227 10.8176 58.4227 9.99832 57.9159 9.49147C57.409 8.98462 56.5885 8.98591 56.0829 9.49147Z" fill="black"/>
<path d="M15.7499 49.8242L12.084 53.4902C11.5771 53.997 11.5771 54.8163 12.084 55.3231C12.3368 55.5759 12.6686 55.7029 13.0005 55.7029C13.3323 55.7029 13.6642 55.5759 13.917 55.3231L17.5829 51.6572C18.0897 51.1503 18.0897 50.3311 17.5829 49.8242C17.076 49.3174 16.2568 49.3174 15.7499 49.8242Z" fill="black"/>
<path d="M54.25 49.8242C53.7431 49.3174 52.9239 49.3174 52.417 49.8242C51.9102 50.3311 51.9102 51.1503 52.417 51.6572L56.0829 55.3231C56.3357 55.5759 56.6676 55.7029 56.9994 55.7029C57.3313 55.7029 57.6631 55.5759 57.9159 55.3231C58.4227 54.8163 58.4227 53.997 57.9159 53.4902L54.25 49.8242Z" fill="black"/>
<path d="M15.7499 14.9904C16.0027 15.2431 16.3346 15.3702 16.6664 15.3702C16.9983 15.3702 17.3301 15.2431 17.5829 14.9904C18.0897 14.4835 18.0897 13.6642 17.5829 13.1574L13.917 9.49147C13.4101 8.98462 12.5908 8.98462 12.084 9.49147C11.5771 9.99832 11.5771 10.8176 12.084 11.3244L15.7499 14.9904Z" fill="black"/>
<path d="M34.9999 16.8518C26.4223 16.8518 19.4443 23.8298 19.4443 32.4074C19.4443 33.1242 20.0238 33.7037 20.7406 33.7037C21.4575 33.7037 22.0369 33.1242 22.0369 32.4074C22.0369 25.2596 27.8521 19.4444 34.9999 19.4444C35.7167 19.4444 36.2962 18.865 36.2962 18.1481C36.2962 17.4313 35.7167 16.8518 34.9999 16.8518Z" fill="black"/>
</g>
<defs>
<clipPath id="clip0_37_1773">
<rect width="70" height="70" fill="white"/>
</clipPath>
</defs>
</svg>
