<svg width="25" height="25" viewBox="0 0 25 25" fill="none" xmlns="http://www.w3.org/2000/svg">
<path fill-rule="evenodd" clip-rule="evenodd" d="M15.187 2.61862C16.048 2.26522 16.9709 2.08333 17.9029 2.08333C18.8349 2.08333 19.7578 2.26522 20.6189 2.61862C21.4797 2.97194 22.2619 3.48979 22.9207 4.14257C23.5797 4.79514 24.1029 5.57027 24.4596 6.42299C24.8164 7.27587 25 8.19002 25 9.11322C25 10.0364 24.8164 10.9506 24.4596 11.8034C24.1029 12.6562 23.58 13.4311 22.9209 14.0837C22.9208 14.0837 22.921 14.0836 22.9209 14.0837L13.2716 23.6417C12.8453 24.0639 12.1541 24.0639 11.7279 23.6417L2.07852 14.0837C0.747666 12.7654 0 10.9775 0 9.11322C0 7.24893 0.747666 5.461 2.07852 4.14275C3.40938 2.8245 5.2144 2.08391 7.09651 2.08391C8.97863 2.08391 10.7837 2.8245 12.1145 4.14275L12.4997 4.5243L12.8847 4.14293C12.8848 4.14287 12.8847 4.14299 12.8847 4.14293C13.5436 3.49006 14.326 2.97198 15.187 2.61862ZM17.9029 4.24577C17.2577 4.24577 16.6187 4.37169 16.0226 4.61635C15.4265 4.861 14.8849 5.2196 14.4288 5.67164L13.2716 6.81791C12.8453 7.24015 12.1541 7.24015 11.7279 6.81791L10.5708 5.67182C9.64937 4.7591 8.39963 4.24634 7.09651 4.24634C5.7934 4.24634 4.54365 4.7591 3.62221 5.67182C2.70077 6.58454 2.18311 7.82244 2.18311 9.11322C2.18311 10.404 2.70077 11.6419 3.62221 12.5546L12.4997 21.348L21.3772 12.5546C21.8336 12.1028 22.1958 11.5661 22.4428 10.9757C22.6898 10.3852 22.8169 9.75235 22.8169 9.11322C22.8169 8.47408 22.6898 7.84121 22.4428 7.25075C22.1958 6.6603 21.8337 6.12383 21.3774 5.672C20.9212 5.21996 20.3793 4.861 19.7832 4.61635C19.1871 4.37169 18.5481 4.24577 17.9029 4.24577Z" fill="black"/>
</svg>
