<svg width="15" height="17" viewBox="0 0 15 17" fill="none" xmlns="http://www.w3.org/2000/svg">
<path fill-rule="evenodd" clip-rule="evenodd" d="M7.03955 0.162773C7.31038 -0.0542578 7.68962 -0.0542578 7.96045 0.162773L14.7105 5.57186C14.8931 5.71826 15 5.94336 15 6.18182V14.6818C15 15.2966 14.7629 15.8863 14.341 16.321C13.919 16.7558 13.3467 17 12.75 17H2.25C1.65326 17 1.08097 16.7558 0.65901 16.321C0.237053 15.8863 0 15.2966 0 14.6818V6.18182C0 5.94336 0.106855 5.71826 0.289545 5.57186L7.03955 0.162773ZM1.5 6.55975V14.6818C1.5 14.8868 1.57902 15.0833 1.71967 15.2282C1.86032 15.3731 2.05109 15.4545 2.25 15.4545H12.75C12.9489 15.4545 13.1397 15.3731 13.2803 15.2282C13.421 15.0833 13.5 14.8868 13.5 14.6818V6.55975L7.5 1.75167L1.5 6.55975Z" fill="black"/>
<path fill-rule="evenodd" clip-rule="evenodd" d="M4.5 8.5C4.5 8.07323 4.83579 7.72727 5.25 7.72727H9.75C10.1642 7.72727 10.5 8.07323 10.5 8.5V16.2273C10.5 16.654 10.1642 17 9.75 17C9.33579 17 9 16.654 9 16.2273V9.27273H6V16.2273C6 16.654 5.66421 17 5.25 17C4.83579 17 4.5 16.654 4.5 16.2273V8.5Z" fill="black"/>
</svg>
